<?xml version="1.0" encoding="iso-8859-1"?>
<!-- Generator: Adobe Illustrator 16.0.0, SVG Export Plug-In . SVG Version: 6.00 Build 0)  -->
<!DOCTYPE svg PUBLIC "-//W3C//DTD SVG 1.1//EN" "http://www.w3.org/Graphics/SVG/1.1/DTD/svg11.dtd">
<svg version="1.1" id="Capa_1" xmlns="http://www.w3.org/2000/svg" xmlns:xlink="http://www.w3.org/1999/xlink" x="0px" y="0px"
	 width="516.375px" height="516.375px" viewBox="0 0 516.375 516.375" style="enable-background:new 0 0 516.375 516.375;"
	 xml:space="preserve">
<g>
	<g>
		<polygon points="267.75,441.788 267.75,227.587 248.625,227.587 248.625,441.788 187.425,380.587 172.125,395.887 
			258.188,480.038 344.25,395.887 328.95,380.587 		"/>
		<path d="M457.088,177.862c-9.562-47.812-53.551-84.15-103.275-84.15c-17.213,0-32.513,3.825-45.9,11.475
			c-22.949-42.075-66.937-68.85-116.662-68.85c-74.587,0-133.875,59.288-133.875,133.875c0,1.913,0,5.737,0,7.65
			C22.95,193.163,0,225.675,0,265.837c0,53.55,42.075,95.625,95.625,95.625H229.5v-19.125H95.625c-42.075,0-76.5-34.425-76.5-76.5
			c0-36.338,24.862-66.938,59.288-74.587C76.5,183.6,76.5,177.862,76.5,170.212c0-63.112,51.638-114.75,114.75-114.75
			c49.725,0,91.8,32.513,109.013,76.5c15.3-11.475,34.425-19.125,53.55-19.125c45.9,0,82.237,34.425,86.062,78.413
			c32.513,7.65,57.375,38.25,57.375,74.587c0,42.075-34.425,76.5-76.5,76.5H286.875v19.125H420.75
			c53.55,0,95.625-42.075,95.625-95.625C516.375,225.675,491.513,191.25,457.088,177.862z"/>
	</g>
</g>
<g>
</g>
<g>
</g>
<g>
</g>
<g>
</g>
<g>
</g>
<g>
</g>
<g>
</g>
<g>
</g>
<g>
</g>
<g>
</g>
<g>
</g>
<g>
</g>
<g>
</g>
<g>
</g>
<g>
</g>
</svg>
